<svg xmlns="http://www.w3.org/2000/svg" width="92" height="148">
	<path
		d="M41 17l-1.7 1.1-1.5.8-1.8.7-3 1a74.6 74.6 0 0 0-11 5.1l-3 1.7a98.6 98.6 0 0 0-7 4.8 80.7 80.7 0 0 0-4 3.1l-2 1.8-.9 1-.8 1L3 41l-.7 2-.2 1v3L2 49v48l.1 1 .5 1.8 1 1.6 1.5 1.2 2 1.1 1 .5 3.9 2 3 1.7 5 2.8 5 2.5 4 2 18 9 6 3.1 4 2.3 3 1.6 6 3 8 4 4 2c1.3.7 2.6 1.4 4 1.8l2 .6 1 .1h1.9l1.5-.7 1-1.3.3-.8.2-1v-1l.1-1.9V24l-.1-2-.2-1-.3-.9-1-1.5-1.5-1.2-1-.4-1-.3-.9-.2-2-.3-3-.4-6-.7-5-.1h-8l-2 .3-2 .1h-1l-1.7-.3-.9-.5-.8-.5-1.8-1.4-1.8-1.6-2-1.5-2-1.2-2-1-2-1-3-1a33.7 33.7 0 0 0-3-.7l-3-.5-2-.1h-1l-1.9.3-.9.3-1.5 1-.5.7-.4.8-.2.9V9l.1.9 1 1.5c.6.7 1.5 1 2.4 1.3l2 .4 1.9.4a45.3 45.3 0 0 1 5 1.2l3.8 1.5.5.2 1.7.6m40 8v52l-1.7-.7-.5-.2-1-.4-4.8-2.5-7-3.5-5-2.8a142.1 142.1 0 0 0-5-2.7l-7-3.4-11-5.6-4-2-4-2-3-1.6-4-2.3-4.8-2.5-1-.5-.5-.3-1.7-1v-2l1.7-1.1a191.6 191.6 0 0 1 6.3-4 63.8 63.8 0 0 1 10-5 130.8 130.8 0 0 1 8-2.9l7-2 .9 1.6.5 1.4.4 1.4.2 1.6-1.7.8-1.5 1-1.8 1.4-2.6 2.8-1.4 2-.5 1-.8 2-.4 2c-.2 1.3 0 2.6.1 3.8l.3 1.5.3 1.7h1.7l1.4-.3 1.7-.7 1.5-1.3c.9-1 1.4-2.4 2-3.7l.3-1 1.1-1.9.7-.8.8-.7 1.8-1 2-.4h2l1 .1 2 .7 1.7 1.3.7.8 1.1 2 .4.9.8 2 1 1.7 1.5 1.2.9.3h1.8l1.5-.8 1.1-1.4.5-1.6v-1.7l-.1-.9-.5-1.8-.9-2-1.2-2-1.5-2-1.8-1.8-2-1.6c-1.7-1.3-3.8-2.2-5.1-4l-1-1.5-.3-1-.2-.4L58 25l1.7-.2h.5l1-.2 1.8-.3a27.3 27.3 0 0 1 4-.2c1 0 2 0 3 .2l4 .5c2.3.3 4.7.2 7 .2M12 52l1.7.6.5.3 1 .4 1.8.8 7 3.6 3 1.5 7 3.6 4 2 3 1.6 4 2.3 5 2.5 8 4 11 5.6 5 2.5 4.8 2.6.5.2 1.7.9v17l-1.2-1-1.2-1.2-.8-.7-1.8-1.4-1-.5-2-.8a9.5 9.5 0 0 0-4 0l-1 .2-3.8 1-1.5.3-1.7.1-.2-1.7-.1-.5-.2-1-1-2.8-1.2-1.9-.7-.9-1.7-1.5-2-1.2-.9-.5-1-.3-2-.3c-1 0-2 .2-3 .4l-3 .7-1.8.3-.5.1-1.7.1-.1-1.7-.1-.5-.5-1.8-.3-1-1-2-1.4-1.8-1.7-1.5-1-.6-1-.5-.9-.4-2-.3c-2-.2-4 .5-6 1l-1.8.6-.5.1-1.7.4-.6-2.2-.3-1-1-2.8-.4-1-1.2-1.9-1.6-1.6-.8-.8-1.5-1.4-1-1.6-.5-1.8V60a85.1 85.1 0 0 1 0-4v-1.7l.3-.8v-.4L12 52m0 30l1 1.6 1.3 1.2 1.8 1.2 1 .5 1 .5 1.9.5c2.4.4 4.7-.5 7-1l1.8-.3.5-.1L31 86l.2 1.7.1.5.2 1 1 2.8 1.2 1.9.7.9 1.7 1.5 2 1.1.9.4 1 .3 2 .2c2 0 4-.7 5.8-1.4l1.5-.5L51 96l1 3.2.6 1.8.8 2 1.3 1.9 1.5 1.7.9.7 2 1 .9.3 1 .2h2c1 0 2-.2 3-.4l2.8-.8 1.5-.4 1.7-.2.4 1.7.4 1.5.7 1.8 1 2 1.1 1.8 1.6 1.5.7.5 1 .5 2.1.7v12l-1.7-.4-1.5-.6-1.8-1-5-2.7-5-2.5-5-2.6-12-6-5-2.5-5-2.6-4-2-6-3.3-4-2-6-3-4.8-2.5-1-.4-.5-.2L11 96V86l.2-1.7.2-.8v-.4L12 82z" />
</svg>
