<svg xmlns="http://www.w3.org/2000/svg" width="386" height="386">
	<path
		d="M192 0 98 94v2l94 94h1l95-95v-1L194 0h-2m15 53 .6 2 .3 2 .1 2v20h-12V61l-.3-2-.7-2-1-1h-4v36l1 1h12l2 .5.8.4.7.6.6.8.7 1.7.1 1 .1 2v32l-.3 2-.4.9-.6.8-1.7 1-1 .3h-20l-2-.1-1.9-.6-1.4-1.4-.7-1.9v-28h12v28l1 1h4l1-1v-30l-.1-2-.2-1-1-1.9-.8-.8-1-.6-1.9-.6-2-.1h-10l-1-1V54l1-1h28M94 98 0 192v2l94 94h1l94-94v-2L95 98h-1m196 0-94 94v2l94 94h2l94-94v-2l-94-94h-2m-173 53 1 1v83h-12v-80l-1-1h-3l-1 1v80H89v-80l-1-1h-4l-1 1v80H71v-84h46m188 0 .6 2 .3 2 .1 2v78h-12v-80l-1-1h-4l-1 1v80h-12v-84h29m-113 45-94 94v2l94 94h2l93-94v-2l-94-94h-1m7 53v84h-12v-84Z" />
</svg>
