<svg xmlns="http://www.w3.org/2000/svg" width="386" height="386">
	<path
		d="M192 0 98 94v2l94 94 1.5-.8.6-.5 1-.8.9-1 2-1.9 2-2 4-4 20-20 64-64-.8-1.5-.5-.6-.8-1-1-.9-1.9-2-2-2-4-4-20-20-63-63h-2m15 53 .6 2 .2 1 .1 1 .1 2v20h-12V61l-.1-1-.2-1-.7-2-.3-.5-.7-1.5-1.4.4-1.2.4-1.4.2v36l1 1h12l2 .5.8.4.7.6.6.8.7 1.7.1 1 .1 2v32l-.3 2-.4.9-.6.8-1.7 1-1 .2h-1l-2 .1h-17l-2-.1-1.9-.6-1.4-1.4-.6-1.9v-1l-.1-2v-25h12v28l1 1h4l1-1v-30l-.1-2-.2-1-1-1.9-.8-.8-1-.6-1.9-.6-2-.1h-10l-1-1V54l1-1h28M94 98 0 192v2l94 94 1.5-.8.6-.5 1-.8.9-1 2-1.9 2-2 4-4 20-20 63-63v-2l-63-63-20-20-4-4-2-2-2-2-1-.9-1-.8-.5-.5L94 98m196 0-94 94v2l94 94h2l94-94v-2l-94-94h-2m-173 53 1 1v83h-12v-81h-5v76l-.1 1-.1 1.6v.7l.2 1.7H89v-80l-1-1h-4l-1 1v80H71v-84h46m188 0 .6 2 .2 1 .1 1 .1 2v78h-12v-80l-1-1h-4l-1 1v80h-12v-84h29m-113 45-94 94v2l94 94h2l94-94-.8-1.5-.5-.6-.8-1-1-.9-.9-1-1-1-2-2-8-8-29-29-33-33-10-10-2-2-1-1-2-2-1-.9-1-.8-.5-.5-1.5-.8m7 53v84h-12v-84z" />
</svg>
