<svg xmlns="http://www.w3.org/2000/svg" viewBox="0 0 24 24">
	<style>
		@media(prefers-color-scheme: light) {
			circle {
				fill: #eee
			},
			path {
				fill: #222
			}
		}
		@media(prefers-color-scheme: dark) {
			path {
				fill: #eee;
			},
			circle {
				fill: #222
			}
		}
	</style>
  <circle cx="12" cy="12" r="10" />
	<path
		d="M12 0a12 12 0 1 1 0 24 12 12 0 0 1 0-24m9.8 12a10 10 0 0 0-7.4-9.6v2.4H9.6V2.4A9.8 9.8 0 0 0 2.2 12a9.8 9.8 0 0 0 19.6 0M6 10.3a1.7 1.7 0 1 1 0 3.4 1.7 1.7 0 0 1 0-3.4m12 0a1.7 1.7 0 1 1 0 3.4 1.7 1.7 0 0 1 0-3.4M7.7 14.8c.8 0 1.5.7 1.5 1.5 0 1-.7 1.7-1.5 1.7-1 0-1.7-.8-1.7-1.7 0-.8.7-1.5 1.7-1.5m8.6 0c1 0 1.7.7 1.7 1.5 0 1-.8 1.7-1.7 1.7-.8 0-1.5-.7-1.5-1.7 0-.8.7-1.5 1.5-1.5M12 16.3a1.7 1.7 0 1 1 0 3.4 1.7 1.7 0 0 1 0-3.4Zm0 0" />
</svg>
