<svg xmlns="http://www.w3.org/2000/svg" width="20" height="20">
	<style>
		@media(prefers-color-scheme: light) {
			circle {
				fill: #fff
			}
		}
		@media(prefers-color-scheme: dark) {
			path {
				fill: #fff
			}
		}
	</style>
  <circle cx="10" cy="10" r="10" />
	<path
		d="M10 0a10 10 0 1 1 0 20 10 10 0 1 1 0-20m8.2 10c0-3.8-2.6-7-6.2-8v2H8V2a8.2 8.2 0 0 0-6.2 8 8.2 8.2 0 1 0 16.4 0M5 8.6a1.4 1.4 0 1 1 0 2.8 1.4 1.4 0 0 1 0-2.8m10 0a1.4 1.4 0 1 1 0 2.8 1.4 1.4 0 1 1 0-2.8m-8.6 3.7a1.4 1.4 0 0 1 1.3 1.3c0 .8-.6 1.4-1.3 1.4A1.4 1.4 0 0 1 5 13.6c0-.7.6-1.3 1.4-1.3m7.2 0c.8 0 1.4.6 1.4 1.3a1.4 1.4 0 0 1-1.4 1.4c-.7 0-1.3-.6-1.3-1.4a1.4 1.4 0 0 1 1.3-1.3M10 13.6a1.4 1.4 0 0 1 0 2.8 1.4 1.4 0 0 1 0-2.8z"
		fill="#222" />
</svg>
